<?xml version="1.0" encoding="UTF-8"?>
<svg id="a" data-name="Layer_1" xmlns="http://www.w3.org/2000/svg" viewBox="0 0 663.7 98.58">
  <defs>
    <style>
      .b {
        letter-spacing: 0em;
      }

      .b, .c, .d {
        font-family: Magic-Fomalhaut, Magic-Fomalhaut;
        font-size: 92.05px;
      }

      .e {
        fill: #fff;
      }

      .f {
        fill: #2bb673;
      }

      .g, .h {
        font-family: Orbitron-Bold, Orbitron;
        font-size: 84.73px;
        font-weight: 700;
      }

      .i {
        fill: #fff685;
      }

      .d {
        letter-spacing: 0em;
      }

      .h {
        letter-spacing: 0em;
      }

      .j {
        fill: #00aeef;
      }
    </style>
  </defs>
  <g>
    <path class="j" d="M70.15,76.49c-2.73,1.61-5.78,2.6-8.95,2.6H22.24c-1.37,0-2.36-1.25-2.36-2.53v-22.66s.06-32.1.06-32.1c0-2.09,1.7-3.74,3.79-3.74l33.3-.02h4.16c8.1-.14,15.19,5.25,17.13,13.12.45,1.81.71,3.62.71,5.57v24.44c-.01,6.3-3.46,12.11-8.89,15.32M60.77,68.44c2.77-.08,4.81-2.13,5.09-4.83l-.02-29.26c0-2.53-2.14-4.98-4.73-4.99l-29.55-.05c-.63,0-.95.49-.95,1.08v36.99c0,.58.37,1.05.96,1.05h29.2Z"/>
    <path class="i" d="M14.76,62.39l1.37,8.12-6.23-20.01L3.14,28.75.25,19.45c-.31-1.01-.38-2.05.04-3.05.49-1.16,1.49-2.13,2.73-2.57L40.75.59c.78-.28,1.53-.45,2.31-.55,2.17-.28,3.96,1.02,4.64,3.05l.99,2.94L11.5,13.91c-1.72.36-3.09,1.7-3.75,3.22-.53,1.2-.59,2.43-.36,3.71l2.04,11.45,5.33,30.1Z"/>
    <path class="f" d="M17.63,64.47l-3.97-22.65-3.74-21.44c-.27-1.78.6-3.37,2.15-4.2.69-.37,1.38-.51,2.19-.67l20.65-4.07,21.54-4.12c1.55-.3,2.98.19,3.98,1.36.55.67.92,1.46,1.07,2.33l.67,3.88-39.48,1.1c-2.77.29-4.74,2.37-4.95,5.16l-.1,43.31Z"/>
  </g>
  <text class="e" transform="translate(83.64 79.09)"><tspan class="c" x="0" y="0">e</tspan><tspan class="g" x="53.94" y="0">CK</tspan><tspan class="d" x="191.12" y="0">a</tspan><tspan class="g" x="261.36" y="0">D</tspan><tspan class="c" x="332.02" y="0">e</tspan><tspan class="h" x="385.96" y="0">NC</tspan><tspan class="b" x="526.11" y="0">e</tspan></text>
</svg>